<svg width="256" height="244" viewBox="0 0 256 244" fill="none" xmlns="http://www.w3.org/2000/svg">
<path d="M102.4 0H153.6C160.39 0 166.901 2.6957 171.702 7.49408C176.503 12.2925 179.2 18.8005 179.2 25.5864V51.1728H230.4C237.19 51.1728 243.701 53.8685 248.502 58.6669C253.303 63.4652 256 69.9732 256 76.7592V217.484C256 224.27 253.303 230.778 248.502 235.577C243.701 240.375 237.19 243.071 230.4 243.071H25.6C11.392 243.071 0 231.557 0 217.484V76.7592C0 62.5587 11.392 51.1728 25.6 51.1728H76.8V25.5864C76.8 11.3859 88.192 0 102.4 0ZM153.6 51.1728V25.5864H102.4V51.1728H153.6Z" fill="white"/>
</svg>
