<svg width="250" height="256" viewBox="0 0 250 256" fill="none" xmlns="http://www.w3.org/2000/svg">
<path d="M166.275 200.533C182.79 200.533 196.247 187.124 196.247 170.667C196.247 154.21 182.79 140.8 166.275 140.8C149.637 140.8 136.303 154.21 136.303 170.667C136.303 187.124 149.637 200.533 166.275 200.533ZM229.89 178.956L247.995 193.097C249.586 194.438 250.075 196.632 248.974 198.583L231.847 228.084C230.746 229.912 228.666 230.644 226.587 229.912L205.3 221.379C200.896 224.792 196.003 227.596 190.865 229.79L187.561 252.343C187.317 254.415 185.482 256 183.402 256H149.148C146.946 256 145.233 254.415 144.866 252.343L141.685 229.79C136.425 227.596 131.654 224.792 127.25 221.379L105.841 229.912C104.006 230.644 101.682 229.912 100.703 228.084L83.5759 198.583C82.4749 196.632 82.9642 194.438 84.5546 193.097L102.66 178.956L102.049 170.667L102.66 162.255L84.5546 148.236C82.9642 146.895 82.4749 144.579 83.5759 142.75L100.703 113.25C101.682 111.299 104.006 110.568 105.841 111.299L127.25 119.954C131.654 116.541 136.425 113.615 141.685 111.543L144.866 88.8686C145.233 86.9181 146.946 85.3333 149.148 85.3333H183.402C185.482 85.3333 187.317 86.9181 187.561 88.8686L190.865 111.543C196.003 113.615 200.896 116.541 205.3 119.954L226.587 111.299C228.666 110.568 230.746 111.299 231.847 113.25L248.974 142.75C250.075 144.579 249.586 146.895 247.995 148.236L229.89 162.255L230.501 170.667L229.89 178.956ZM53.6036 73.9962C64.2468 73.9962 72.8104 65.4629 72.8104 54.8571C72.8104 44.2514 64.2468 35.5962 53.6036 35.5962C48.4772 35.5962 43.5608 37.6255 39.9359 41.2376C36.311 44.8497 34.2746 49.7488 34.2746 54.8571C34.2746 65.4629 42.9604 73.9962 53.6036 73.9962ZM94.4638 60.221L106.33 69.2419C107.187 70.0952 107.431 71.5581 106.697 72.7771L95.6872 91.7943C95.0755 93.0133 93.6075 93.501 92.3841 93.0133L78.6825 87.5276L69.6296 92.8914L67.3052 107.398C67.0606 108.739 65.9596 109.714 64.6139 109.714H42.5934C41.1254 109.714 40.0243 108.739 39.7797 107.398L37.8223 92.8914L28.5248 87.5276L14.5785 93.0133C13.4774 93.501 12.1318 93.0133 11.3977 91.7943L0.387507 72.7771C-0.346509 71.5581 0.0205015 70.0952 0.999189 69.2419L12.6211 60.221L12.2541 54.8571L12.6211 49.4933L0.999189 40.4724C0.0205015 39.6191 -0.346509 38.1562 0.387507 36.9371L11.3977 17.92C12.1318 16.701 13.4774 16.2133 14.5785 16.701L28.4024 22.1867L37.8223 16.8229L39.7797 2.31619C40.0243 0.975239 41.1254 0 42.5934 0H64.6139C65.9596 0 67.0606 0.975239 67.3052 2.31619L69.6296 16.8229L78.6825 22.1867L92.3841 16.701C93.6075 16.2133 95.0755 16.701 95.6872 17.92L106.697 36.9371C107.431 38.1562 107.187 39.6191 106.33 40.4724L94.4638 49.4933L94.8308 54.8571L94.4638 60.221Z" fill="white"/>
</svg>
