<svg width="856" height="210" viewBox="0 0 856 210" fill="none" xmlns="http://www.w3.org/2000/svg">
<path d="M304.205 87.2254V63.86H189.697V75.0184C196.009 86.524 199.671 100.82 199.671 118.02C199.671 120.548 199.591 123.012 199.436 125.416C229.627 124.359 262.094 123.686 294.921 123.018V114.769H217.551V87.2254H304.205ZM199.058 129.843C197.771 141.886 194.502 152.262 189.697 161.02V172.178H217.551V138.289H294.921V127.624C263.228 128.025 231.322 128.694 199.058 129.843ZM341.188 148.813V127.206C331.917 127.261 322.634 127.332 313.335 127.42V172.178H424.748V148.813H341.188ZM341.188 122.043V63.86H313.335V122.643C322.634 122.451 331.932 122.254 341.188 122.043ZM496.856 173.725C540.695 173.725 561.603 156.725 564.57 125.89C555.175 126.061 545.796 126.201 536.432 126.319C533.652 142.643 521.818 150.359 496.856 150.359C472.156 150.359 460.311 142.916 457.372 126.878C447.996 126.907 438.622 126.927 429.248 126.945C432.555 157.228 453.365 173.725 496.856 173.725ZM564.716 111.6C562.372 79.8135 541.509 62.3122 496.856 62.3122C449.196 62.3122 428.771 81.9648 428.771 117.864C428.771 118.331 428.776 118.793 428.783 119.255C437.758 118.843 447.07 118.386 456.624 117.891V117.864C456.624 95.7361 467.765 85.6785 496.856 85.6785C523.859 85.6785 535.394 94.4788 536.912 113.315C546.207 112.749 555.498 112.175 564.716 111.6ZM756.665 63.86L742.837 100.846C753.998 100.276 763.878 99.8048 772.827 99.3985L786.839 63.86H756.665ZM736.503 117.79L724.789 149.122L713.117 119.891C705.305 120.515 697.574 121.051 689.986 121.472C688.611 121.549 687.24 121.62 685.867 121.694L705.6 172.178H744.131L766.878 114.485C756.788 115.671 746.625 116.788 736.503 117.79ZM706.301 102.819L690.746 63.86H656.548L639.42 106.877C649.403 106.246 658.982 105.645 668.046 105.086L673.724 90.6297L679.11 104.409C684.077 104.109 688.856 103.824 693.416 103.559C697.862 103.3 702.149 103.054 706.301 102.819ZM632.569 124.08L622.66 148.967L613.531 124.711C603.965 125.002 594.423 125.254 584.902 125.472L603.318 172.178H641.693L661.039 122.925C651.521 123.354 642.031 123.738 632.569 124.08ZM607.579 108.897L590.629 63.86H560.609L579.078 110.7C588.729 110.093 598.257 109.488 607.579 108.897Z" fill="#536D3F"/>
<path d="M115.337 38.5545H0V137.735C12.5053 136.694 26.1421 135.582 40.8672 134.453V72.8378H99.8981C130.776 72.8378 151.663 79.4223 151.663 118.02C151.663 121.409 151.5 124.549 151.184 127.46C163.819 126.841 176.881 126.264 190.365 125.748L192.277 125.676C192.443 123.191 192.531 120.639 192.531 118.02C192.531 63.9836 156.431 38.5545 115.337 38.5545ZM0 142.147V197.483H115.337C153.235 197.483 186.885 175.854 191.89 130.107L190.281 130.167C176.604 130.691 163.358 131.276 150.554 131.905C145.864 158.262 126.625 163.2 99.8981 163.2H40.8672V138.865C26.1433 139.994 12.5064 141.105 0 142.147Z" fill="#373535"/>
<path fill-rule="evenodd" clip-rule="evenodd" d="M773.636 36.9653H786.798V50.1268H773.636V36.9653Z" fill="#536D3F"/>
<path fill-rule="evenodd" clip-rule="evenodd" d="M793.239 15.9628H816.202V38.9253H793.239V15.9628Z" fill="#536D3F"/>
<path fill-rule="evenodd" clip-rule="evenodd" d="M817.213 58.7872H827.853V48.1463H817.213V58.7872Z" fill="#536D3F"/>
<path fill-rule="evenodd" clip-rule="evenodd" d="M795.09 84.2706H815.532V63.8279H795.09V84.2706Z" fill="#536D3F"/>
<path fill-rule="evenodd" clip-rule="evenodd" d="M834.574 77.8298H845.216V67.1887H834.574V77.8298Z" fill="#536D3F"/>
<path fill-rule="evenodd" clip-rule="evenodd" d="M829.363 26.6037H855.967V0H829.363V26.6037Z" fill="#536D3F"/>
<path d="M199.154 209.356H200.452V190.622L205.26 209.356H206.441L211.22 190.622V209.356H212.607V188.705H210.453L205.88 206.73L201.307 188.705H199.154V209.356ZM230.019 209.651C233.323 209.651 235.152 207.792 235.152 204.311V193.72C235.152 190.268 233.323 188.41 230.019 188.41C226.744 188.41 224.885 190.268 224.885 193.72V204.311C224.885 207.792 226.744 209.651 230.019 209.651ZM230.019 208.412C227.599 208.412 226.301 207.085 226.301 204.429V193.632C226.301 190.947 227.599 189.649 230.019 189.649C232.438 189.649 233.765 190.947 233.765 193.632V204.429C233.765 207.085 232.438 208.412 230.019 208.412ZM247.431 209.356H248.758V190.711L256.311 209.356H257.845V188.705H256.517V206.229L249.378 188.705H247.431V209.356ZM270.389 209.356H271.805V188.705H270.389V209.356ZM287.772 209.356H289.158V189.944H293.643V188.705H283.258V189.944H287.772V209.356ZM309.786 209.651C313.09 209.651 314.92 207.792 314.92 204.311V193.72C314.92 190.268 313.09 188.41 309.786 188.41C306.512 188.41 304.653 190.268 304.653 193.72V204.311C304.653 207.792 306.512 209.651 309.786 209.651ZM309.786 208.412C307.367 208.412 306.069 207.085 306.069 204.429V193.632C306.069 190.947 307.367 189.649 309.786 189.649C312.206 189.649 313.533 190.947 313.533 193.632V204.429C313.533 207.085 312.206 208.412 309.786 208.412ZM327.199 209.356H328.614V199.65H331.683C334.544 199.65 335.695 200.682 335.695 203.396V206.701C335.695 207.851 335.783 208.678 335.961 209.356H337.376C337.141 208.619 337.082 207.615 337.082 206.701V203.485C337.082 200.771 336.138 199.384 333.984 198.971V198.942C336.138 198.47 337.082 197.024 337.082 194.399V193.543C337.082 190.209 335.489 188.705 331.978 188.705H327.199V209.356ZM328.614 198.411V189.944H331.948C334.603 189.944 335.695 191.035 335.695 193.75V194.664C335.695 197.29 334.427 198.411 331.624 198.411H328.614ZM363.409 209.356H372.525V208.117H364.825V199.355H371.227V198.086H364.825V189.944H372.525V188.705H363.409V209.356ZM384.096 209.356H392.917V208.117H385.512V188.705H384.096V209.356ZM404.37 209.356H413.486V208.117H405.786V199.355H412.188V198.086H405.786V189.944H413.486V188.705H404.37V209.356ZM428.479 209.356H429.866V189.944H434.35V188.705H423.965V189.944H428.479V209.356ZM445.832 209.356H447.248V199.65H450.316C453.178 199.65 454.329 200.682 454.329 203.396V206.701C454.329 207.851 454.417 208.678 454.594 209.356H456.01C455.774 208.619 455.715 207.615 455.715 206.701V203.485C455.715 200.771 454.771 199.384 452.618 198.971V198.942C454.771 198.47 455.715 197.024 455.715 194.399V193.543C455.715 190.209 454.122 188.705 450.611 188.705H445.832V209.356ZM447.248 198.411V189.944H450.582C453.237 189.944 454.329 191.035 454.329 193.75V194.664C454.329 197.29 453.06 198.411 450.257 198.411H447.248ZM469.646 186.492H470.944L472.921 184.014L474.898 186.492H476.195L473.776 183.129H472.065L469.646 186.492ZM472.921 209.651C476.225 209.651 478.054 207.792 478.054 204.311V193.72C478.054 190.268 476.225 188.41 472.921 188.41C469.646 188.41 467.788 190.268 467.788 193.72V204.311C467.788 207.792 469.646 209.651 472.921 209.651ZM472.921 208.412C470.502 208.412 469.204 207.085 469.204 204.429V193.632C469.204 190.947 470.502 189.649 472.921 189.649C475.34 189.649 476.668 190.947 476.668 193.632V204.429C476.668 207.085 475.34 208.412 472.921 208.412ZM490.333 209.356H491.661V190.711L499.213 209.356H500.747V188.705H499.42V206.229L492.28 188.705H490.333V209.356ZM513.292 209.356H514.707V188.705H513.292V209.356ZM531.972 209.651C535.188 209.651 536.987 207.704 536.987 204.488V202.157H535.66V204.518C535.66 207.025 534.244 208.412 532.002 208.412C529.789 208.412 528.403 207.025 528.403 204.518V193.513C528.403 191.006 529.789 189.649 532.002 189.649C534.244 189.649 535.66 191.006 535.66 193.513V195.284H536.987V193.573C536.987 190.327 535.188 188.41 531.972 188.41C528.874 188.41 527.016 190.327 527.016 193.573V204.488C527.016 207.704 528.874 209.651 531.972 209.651ZM553.868 209.651C557.173 209.651 559.002 207.792 559.002 204.311V193.72C559.002 190.268 557.173 188.41 553.868 188.41C550.594 188.41 548.735 190.268 548.735 193.72V204.311C548.735 207.792 550.594 209.651 553.868 209.651ZM553.868 208.412C551.449 208.412 550.151 207.085 550.151 204.429V193.632C550.151 190.947 551.449 189.649 553.868 189.649C556.288 189.649 557.615 190.947 557.615 193.632V204.429C557.615 207.085 556.288 208.412 553.868 208.412ZM585.3 209.356H590.345C593.826 209.356 595.419 207.704 595.419 204.105V193.956C595.419 190.357 593.826 188.705 590.345 188.705H585.3V209.356ZM586.716 208.117V189.944H590.286C592.911 189.944 594.032 191.094 594.032 193.897V204.134C594.032 206.937 592.911 208.117 590.286 208.117H586.716ZM607.698 209.356H616.814V208.117H609.114V199.355H615.516V198.086H609.114V189.944H616.814V188.705H607.698V209.356ZM646.328 209.385H648.128L653.054 188.705H651.727L647.272 207.557L642.788 188.705H641.372L646.328 209.385ZM672.413 209.356H673.859L668.933 188.675H667.044L662.177 209.356H663.504L664.625 204.606H671.263L672.413 209.356ZM664.891 203.367L667.9 190.504L670.968 203.367H664.891ZM684.486 209.356H694.517V208.117H686.079L694.517 189.944V188.705H684.81V189.944H692.953L684.486 208.117V209.356ZM709.48 184.781C709.864 184.781 710.247 185.017 710.572 185.282C711.073 185.666 711.575 185.991 712.342 185.991C713.168 185.991 713.935 185.371 714.584 183.867L713.728 183.453C713.256 184.545 712.843 184.84 712.342 184.84C711.929 184.84 711.575 184.633 711.191 184.338C710.748 183.984 710.247 183.66 709.48 183.66C708.595 183.66 707.857 184.25 707.238 185.754L708.064 186.167C708.506 185.076 708.979 184.781 709.48 184.781ZM715.351 209.356H716.796L711.87 188.675H709.982L705.114 209.356H706.441L707.562 204.606H714.2L715.351 209.356ZM707.828 203.367L710.837 190.504L713.905 203.367H707.828ZM732.94 209.651C736.244 209.651 738.073 207.792 738.073 204.311V193.72C738.073 190.268 736.244 188.41 732.94 188.41C729.665 188.41 727.806 190.268 727.806 193.72V204.311C727.806 207.792 729.665 209.651 732.94 209.651ZM732.94 208.412C730.521 208.412 729.223 207.085 729.223 204.429V193.632C729.223 190.947 730.521 189.649 732.94 189.649C735.359 189.649 736.687 190.947 736.687 193.632V204.429C736.687 207.085 735.359 208.412 732.94 208.412Z" fill="#373535"/>
</svg>
