<svg width="227" height="166" viewBox="0 0 227 166" fill="none" xmlns="http://www.w3.org/2000/svg">
<path d="M141.876 85.0965C141.876 100.763 129.172 113.462 113.501 113.462C97.8295 113.462 85.1255 100.763 85.1255 85.0965C85.1255 69.4305 97.8295 56.7307 113.501 56.7307C129.172 56.7307 141.876 69.4305 141.876 85.0965Z" fill="white"/>
<path d="M151.337 85.0965C151.337 80.9955 150.571 76.9466 149.102 73.1851C147.633 69.4241 145.494 66.0369 142.83 63.2127C139.249 59.4131 139.427 53.4333 143.227 49.8516C147.028 46.2712 153.01 46.4497 156.593 50.2487C160.955 54.8742 164.392 60.3338 166.725 66.306C169.058 72.2781 170.254 78.662 170.254 85.0965C170.254 91.531 169.058 97.9149 166.725 103.887C164.392 109.859 160.955 115.319 156.593 119.944C153.01 123.743 147.028 123.922 143.227 120.341C139.427 116.76 139.249 110.78 142.83 106.98C145.494 104.156 147.633 100.769 149.102 97.0079C150.571 93.2464 151.337 89.1975 151.337 85.0965Z" fill="white"/>
<path d="M75.6639 85.0965C75.6639 80.9955 76.4297 76.9466 77.8992 73.1851C79.3684 69.4241 81.5074 66.0369 84.1709 63.2127C87.7525 59.4131 87.5739 53.4333 83.7737 49.8516C79.9728 46.2712 73.991 46.4497 70.4082 50.2487C66.0462 54.8742 62.6086 60.3338 60.2755 66.306C57.9427 72.2781 56.7471 78.662 56.7471 85.0965C56.7471 91.531 57.9427 97.9149 60.2755 103.887C62.6086 109.859 66.0462 115.319 70.4082 119.944C73.991 123.743 79.9728 123.922 83.7737 120.341C87.5739 116.76 87.7525 110.78 84.1709 106.98C81.5074 104.156 79.3684 100.769 77.8992 97.0079C76.4297 93.2464 75.6639 89.1975 75.6639 85.0965Z" fill="white"/>
<path d="M179.705 85.0965C179.705 77.5457 178.232 70.0729 175.373 63.1019C172.514 56.1305 168.326 49.7945 163.051 44.4684C159.38 40.757 159.414 34.7708 163.125 31.098C166.838 27.4274 172.826 27.4619 176.5 31.1719C183.52 38.2619 189.082 46.6768 192.877 55.9274C196.671 65.1784 198.622 75.0889 198.622 85.0965C198.622 95.1041 196.671 105.015 192.877 114.266C189.082 123.516 183.52 131.931 176.5 139.021C172.826 142.731 166.838 142.766 163.125 139.095C159.414 135.422 159.38 129.436 163.051 125.725C168.326 120.398 172.514 114.063 175.373 107.091C178.232 100.12 179.705 92.6473 179.705 85.0965Z" fill="white"/>
<path d="M47.2956 85.0965C47.2956 77.5457 48.7686 70.0729 51.6276 63.1019C54.4872 56.1305 58.6751 49.7945 63.9494 44.4684C67.6213 40.757 67.5868 34.7708 63.8755 31.098C60.1629 27.4274 54.1747 27.4619 50.5008 31.1719C43.4805 38.2619 37.9185 46.6768 34.1241 55.9274C30.3298 65.1784 28.3789 75.0889 28.3789 85.0965C28.3789 95.1041 30.3298 105.015 34.1241 114.266C37.9185 123.516 43.4805 131.931 50.5008 139.021C54.1747 142.731 60.1629 142.766 63.8755 139.095C67.5868 135.422 67.6213 129.436 63.9494 125.725C58.6751 120.398 54.4872 114.063 51.6276 107.091C48.7686 100.12 47.2956 92.6473 47.2956 85.0965Z" fill="white"/>
<path d="M208.083 83.0007C208.083 70.5839 205.641 58.2856 200.888 46.814C196.135 35.3424 189.165 24.9197 180.382 16.1397C176.689 12.4472 176.689 6.4619 180.382 2.76939C184.076 -0.923128 190.063 -0.923128 193.757 2.76939C204.296 13.3047 212.66 25.8099 218.364 39.5748C224.068 53.3408 227 68.1005 227 83.0007C227 97.8994 224.067 112.653 218.364 126.417C212.66 140.183 204.297 152.696 193.757 163.232C190.064 166.923 184.076 166.923 180.382 163.232C176.689 159.54 176.69 153.554 180.382 149.862C189.165 141.082 196.135 130.658 200.888 119.187C205.641 107.716 208.083 95.4171 208.083 83.0007Z" fill="white"/>
<path d="M0 83.0005C0 68.1003 2.93238 53.3405 8.63632 39.5745C14.3401 25.8097 22.7043 13.3045 33.2429 2.76916C36.9364 -0.923121 42.9239 -0.922664 46.6177 2.76916C50.3114 6.46168 50.3114 12.447 46.6177 16.1395C37.8351 24.9194 30.8653 35.3424 26.1122 46.8137C21.3589 58.2854 18.9168 70.5837 18.9168 83.0005C18.917 95.4168 21.3591 107.716 26.1122 119.187C30.8654 130.658 37.8353 141.082 46.6177 149.861C50.3107 153.554 50.3112 159.539 46.6177 163.232C42.924 166.922 36.936 166.923 33.2429 163.232C22.7034 152.696 14.3403 140.183 8.63632 126.417C2.93345 112.653 0.000180608 97.899 0 83.0005Z" fill="white"/>
</svg>
